<svg width="30" height="30" viewBox="0 0 30 30" fill="none" xmlns="http://www.w3.org/2000/svg">
<g id="16 / globe" opacity="0.5">
<path id="icon" fill-rule="evenodd" clip-rule="evenodd" d="M15 30C6.71573 30 0 23.2843 0 15C0 6.71573 6.71573 0 15 0C23.2843 0 30 6.71573 30 15C30 23.2843 23.2843 30 15 30ZM3.83784 13.5873C4.59809 13.7707 5.44086 13.9683 6.09733 14.0981C6.56286 14.1902 7.03264 14.2762 7.50608 14.3557C7.56987 10.9846 8.13385 7.87336 9.10654 5.41537C6.27199 7.16201 4.27087 10.1309 3.83784 13.5873ZM7.65203 18.1771C7.88563 20.5664 8.38301 22.7563 9.10654 24.5846C6.57196 23.0228 4.70375 20.4838 4.02714 17.4928C4.45606 17.5897 4.9037 17.6847 5.36984 17.7769C6.12089 17.9254 6.8822 18.0594 7.65203 18.1771ZM11.4812 18.6156C12.6438 18.7033 13.8185 18.75 15 18.75C16.1805 18.75 17.3555 18.7034 18.5187 18.6157C18.2725 20.4883 17.8377 22.1805 17.2541 23.5422C16.4689 25.3743 15.5816 26.25 15 26.25C14.4184 26.25 13.5311 25.3743 12.7459 23.5422C12.1623 22.1804 11.7275 20.4882 11.4812 18.6156ZM18.7495 14.8346C17.5096 14.9422 16.2563 15 15 15C13.7424 15 12.4895 14.9421 11.2505 14.8343C11.2688 11.6101 11.8201 8.61807 12.7459 6.45782C13.5311 4.6257 14.4184 3.75 15 3.75C15.5816 3.75 16.4689 4.6257 17.2541 6.45782C18.1799 8.61813 18.7313 11.6102 18.7495 14.8346ZM22.3478 18.1786C22.1142 20.5674 21.6168 22.7567 20.8935 24.5846C23.4269 23.0235 25.2945 20.4861 25.9719 17.4969C25.5481 17.5923 25.1051 17.6861 24.6444 17.777C23.8889 17.9261 23.1228 18.0606 22.3478 18.1786ZM26.1633 13.5968C25.4841 13.7676 24.7325 13.9373 23.9184 14.098C23.4479 14.1908 22.9728 14.2776 22.494 14.3577C22.4303 10.9858 21.8663 7.87384 20.8935 5.41537C23.7306 7.16361 25.7328 10.1363 26.1633 13.5968Z" fill="#06222E"/>
</g>
</svg>
